<svg width="600" height="400" viewBox="0 0 600 400" fill="none" xmlns="http://www.w3.org/2000/svg">
  <!-- Background -->
  <rect width="600" height="400" fill="#F8FAFC"/>
  
  <!-- Main Cloud Platform -->
  <ellipse cx="300" cy="200" rx="180" ry="90" fill="#3B82F6" stroke="#1E40AF" stroke-width="3"/>
  <ellipse cx="300" cy="200" rx="160" ry="80" fill="#60A5FA" stroke="#3B82F6" stroke-width="2"/>
  <ellipse cx="300" cy="200" rx="140" ry="70" fill="#93C5FD" stroke="#60A5FA" stroke-width="1"/>
  
  <!-- Cloud Services Grid -->
  <g transform="translate(220, 140)">
    <rect x="0" y="0" width="50" height="35" rx="6" fill="#6B7280" stroke="#374151" stroke-width="1.5"/>
    <text x="25" y="22" text-anchor="middle" fill="white" font-family="Arial, sans-serif" font-size="8">API</text>
  </g>
  
  <g transform="translate(280, 140)">
    <rect x="0" y="0" width="50" height="35" rx="6" fill="#6B7280" stroke="#374151" stroke-width="1.5"/>
    <text x="25" y="22" text-anchor="middle" fill="white" font-family="Arial, sans-serif" font-size="8">DB</text>
  </g>
  
  <g transform="translate(340, 140)">
    <rect x="0" y="0" width="50" height="35" rx="6" fill="#6B7280" stroke="#374151" stroke-width="1.5"/>
    <text x="25" y="22" text-anchor="middle" fill="white" font-family="Arial, sans-serif" font-size="8">Auth</text>
  </g>
  
  <g transform="translate(220, 185)">
    <rect x="0" y="0" width="50" height="35" rx="6" fill="#6B7280" stroke="#374151" stroke-width="1.5"/>
    <text x="25" y="22" text-anchor="middle" fill="white" font-family="Arial, sans-serif" font-size="8">Storage</text>
  </g>
  
  <g transform="translate(280, 185)">
    <rect x="0" y="0" width="50" height="35" rx="6" fill="#6B7280" stroke="#374151" stroke-width="1.5"/>
    <text x="25" y="22" text-anchor="middle" fill="white" font-family="Arial, sans-serif" font-size="8">Cache</text>
  </g>
  
  <g transform="translate(340, 185)">
    <rect x="0" y="0" width="50" height="35" rx="6" fill="#6B7280" stroke="#374151" stroke-width="1.5"/>
    <text x="25" y="22" text-anchor="middle" fill="white" font-family="Arial, sans-serif" font-size="8">ML</text>
  </g>
  
  <!-- Central Orchestration -->
  <circle cx="300" cy="200" r="25" fill="#10B981" stroke="#059669" stroke-width="2"/>
  <text x="300" y="205" text-anchor="middle" fill="white" font-family="Arial, sans-serif" font-size="10" font-weight="bold">Orchestrator</text>
  
  <!-- Cloud Infrastructure Components -->
  <g transform="translate(80, 80)">
    <rect x="0" y="0" width="80" height="50" rx="8" fill="#E5E7EB" stroke="#D1D5DB" stroke-width="1"/>
    <text x="40" y="30" text-anchor="middle" fill="#374151" font-family="Arial, sans-serif" font-size="10">Load Balancer</text>
  </g>
  
  <g transform="translate(440, 80)">
    <rect x="0" y="0" width="80" height="50" rx="8" fill="#E5E7EB" stroke="#D1D5DB" stroke-width="1"/>
    <text x="40" y="30" text-anchor="middle" fill="#374151" font-family="Arial, sans-serif" font-size="10">CDN</text>
  </g>
  
  <g transform="translate(80, 270)">
    <rect x="0" y="0" width="80" height="50" rx="8" fill="#E5E7EB" stroke="#D1D5DB" stroke-width="1"/>
    <text x="40" y="30" text-anchor="middle" fill="#374151" font-family="Arial, sans-serif" font-size="10">Monitoring</text>
  </g>
  
  <g transform="translate(440, 270)">
    <rect x="0" y="0" width="80" height="50" rx="8" fill="#E5E7EB" stroke="#D1D5DB" stroke-width="1"/>
    <text x="40" y="30" text-anchor="middle" fill="#374151" font-family="Arial, sans-serif" font-size="10">Security</text>
  </g>
  
  <!-- Data Flow Connections -->
  <path d="M160 105 Q200 150 240 157" stroke="#6B7280" stroke-width="2" stroke-dasharray="6,3" fill="none"/>
  <path d="M520 105 Q480 150 440 157" stroke="#6B7280" stroke-width="2" stroke-dasharray="6,3" fill="none"/>
  <path d="M160 295 Q200 250 240 243" stroke="#6B7280" stroke-width="2" stroke-dasharray="6,3" fill="none"/>
  <path d="M520 295 Q480 250 440 243" stroke="#6B7280" stroke-width="2" stroke-dasharray="6,3" fill="none"/>
  
  <!-- Scaling Indicators -->
  <g transform="translate(60, 60)">
    <circle cx="0" cy="0" r="10" fill="#F59E0B" opacity="0.8"/>
    <path d="M0 -5 L0 5 M-5 0 L5 0" stroke="white" stroke-width="2"/>
  </g>
  
  <g transform="translate(540, 60)">
    <circle cx="0" cy="0" r="10" fill="#F59E0B" opacity="0.8"/>
    <path d="M0 -5 L0 5 M-5 0 L5 0" stroke="white" stroke-width="2"/>
  </g>
  
  <g transform="translate(60, 340)">
    <circle cx="0" cy="0" r="10" fill="#F59E0B" opacity="0.8"/>
    <path d="M0 -5 L0 5 M-5 0 L5 0" stroke="white" stroke-width="2"/>
  </g>
  
  <g transform="translate(540, 340)">
    <circle cx="0" cy="0" r="10" fill="#F59E0B" opacity="0.8"/>
    <path d="M0 -5 L0 5 M-5 0 L5 0" stroke="white" stroke-width="2"/>
  </g>
  
  <!-- Cloud Performance Metrics -->
  <g transform="translate(300, 320)">
    <rect x="-60" y="0" width="120" height="40" rx="6" fill="#E5E7EB" stroke="#D1D5DB" stroke-width="1"/>
    <text x="0" y="15" text-anchor="middle" fill="#374151" font-family="Arial, sans-serif" font-size="8">99.9% Uptime</text>
    <text x="0" y="28" text-anchor="middle" fill="#374151" font-family="Arial, sans-serif" font-size="8">Auto Scaling</text>
  </g>
  
  <!-- Decorative Cloud Elements -->
  <g opacity="0.6">
    <ellipse cx="100" cy="120" rx="20" ry="10" fill="#93C5FD"/>
    <ellipse cx="500" cy="120" rx="20" ry="10" fill="#93C5FD"/>
    <ellipse cx="100" cy="280" rx="20" ry="10" fill="#93C5FD"/>
    <ellipse cx="500" cy="280" rx="20" ry="10" fill="#93C5FD"/>
  </g>
  
  <!-- Title -->
  <text x="300" y="40" text-anchor="middle" fill="#1F2937" font-family="Arial, sans-serif" font-size="20" font-weight="bold">Cloud Architecture</text>
</svg> 